<svg width="96" height="96" viewBox="0 0 96 96" fill="none" xmlns="http://www.w3.org/2000/svg">
<path d="M48 78.5625C45.8333 78.5625 43.7917 77.8125 41.875 76.3125C39.9792 74.8125 38.3021 72.7083 36.8438 70C35.4062 67.2917 34.2708 64.1146 33.4375 60.4688C32.625 56.8021 32.2188 52.8125 32.2188 48.5C32.2188 44.1875 32.625 40.1979 33.4375 36.5312C34.2708 32.8438 35.4062 29.6458 36.8438 26.9375C38.2812 24.2083 39.9479 22.0938 41.8438 20.5938C43.7604 19.0938 45.8125 18.3438 48 18.3438C50.1875 18.3438 52.2292 19.0938 54.125 20.5938C56.0417 22.0938 57.7188 24.2083 59.1562 26.9375C60.6146 29.6458 61.75 32.8438 62.5625 36.5312C63.375 40.1979 63.7812 44.1875 63.7812 48.5C63.7812 52.8125 63.3646 56.8021 62.5312 60.4688C61.7188 64.1146 60.5833 67.2917 59.125 70C57.6875 72.7083 56.0104 74.8125 54.0938 76.3125C52.1979 77.8125 50.1667 78.5625 48 78.5625ZM48 22.125C46.4792 22.125 45.0208 22.8333 43.625 24.25C42.2292 25.6458 40.9896 27.5625 39.9062 30C38.8229 32.4375 37.9688 35.25 37.3438 38.4375C36.7188 41.6042 36.4062 44.9583 36.4062 48.5C36.4062 52 36.7188 55.3229 37.3438 58.4688C37.9688 61.6146 38.8229 64.4167 39.9062 66.875C40.9896 69.3125 42.2292 71.2292 43.625 72.625C45.0208 74.0417 46.4792 74.75 48 74.75C49.5208 74.75 50.9792 74.0417 52.375 72.625C53.7708 71.2292 55.0104 69.3125 56.0938 66.875C57.1771 64.4167 58.0312 61.6146 58.6562 58.4688C59.2812 55.3229 59.5938 52 59.5938 48.5C59.5938 44.9583 59.2812 41.6042 58.6562 38.4375C58.0312 35.25 57.1771 32.4375 56.0938 30C55.0104 27.5625 53.7708 25.6458 52.375 24.25C50.9792 22.8333 49.5208 22.125 48 22.125ZM45.9688 18.7812H50.0625V77.9688H45.9688V18.7812ZM48 60.1875C51.2083 60.1875 54.25 60.4583 57.125 61C60 61.5208 62.5833 62.2812 64.875 63.2812C67.1875 64.2604 69.0729 65.4167 70.5312 66.75L67.375 69.3438C66 68.2604 64.3438 67.3438 62.4062 66.5938C60.4896 65.8229 58.3125 65.25 55.875 64.875C53.4583 64.4792 50.8333 64.2812 48 64.2812C45.1667 64.2812 42.5312 64.4792 40.0938 64.875C37.6771 65.25 35.5 65.8229 33.5625 66.5938C31.6458 67.3438 30 68.2604 28.625 69.3438L25.4688 66.75C26.9271 65.4167 28.8021 64.2604 31.0938 63.2812C33.4062 62.2812 36 61.5208 38.875 61C41.75 60.4583 44.7917 60.1875 48 60.1875ZM76.8438 46.375V50.4688H19.1562V46.375H76.8438ZM48 36.8438C44.7917 36.8438 41.75 36.5833 38.875 36.0625C36 35.5208 33.4062 34.7604 31.0938 33.7812C28.8021 32.7812 26.9271 31.6146 25.4688 30.2812L28.625 27.6875C30 28.7708 31.6458 29.6979 33.5625 30.4688C35.5 31.2188 37.6771 31.7917 40.0938 32.1875C42.5312 32.5625 45.1667 32.75 48 32.75C50.8333 32.75 53.4583 32.5625 55.875 32.1875C58.3125 31.7917 60.4896 31.2188 62.4062 30.4688C64.3438 29.6979 66 28.7708 67.375 27.6875L70.5312 30.2812C69.0729 31.6146 67.1875 32.7812 64.875 33.7812C62.5833 34.7604 60 35.5208 57.125 36.0625C54.25 36.5833 51.2083 36.8438 48 36.8438ZM48 80.3125C43.6458 80.3125 39.5417 79.4792 35.6875 77.8125C31.8542 76.1458 28.4688 73.8438 25.5312 70.9062C22.5938 67.9688 20.2917 64.5833 18.625 60.75C16.9583 56.8958 16.125 52.7917 16.125 48.4375C16.125 44.0833 16.9583 39.9896 18.625 36.1562C20.2917 32.3021 22.5833 28.9062 25.5 25.9688C28.4375 23.0312 31.8229 20.7292 35.6562 19.0625C39.5104 17.3958 43.6146 16.5625 47.9688 16.5625C52.3229 16.5625 56.4271 17.3958 60.2812 19.0625C64.1354 20.7292 67.5312 23.0312 70.4688 25.9688C73.4062 28.9062 75.7083 32.3021 77.375 36.1562C79.0417 39.9896 79.875 44.0833 79.875 48.4375C79.875 52.7917 79.0417 56.8958 77.375 60.75C75.7083 64.5833 73.4062 67.9688 70.4688 70.9062C67.5312 73.8438 64.1354 76.1458 60.2812 77.8125C56.4479 79.4792 52.3542 80.3125 48 80.3125ZM48 76.0625C51.7708 76.0625 55.3229 75.3333 58.6562 73.875C61.9896 72.4375 64.9271 70.4479 67.4688 67.9062C70.0104 65.3646 72 62.4271 73.4375 59.0938C74.8958 55.7604 75.625 52.2083 75.625 48.4375C75.625 44.6667 74.8958 41.1146 73.4375 37.7812C72 34.4479 70 31.5104 67.4375 28.9688C64.8958 26.4271 61.9583 24.4375 58.625 23C55.2917 21.5417 51.7396 20.8125 47.9688 20.8125C44.1979 20.8125 40.6458 21.5417 37.3125 23C33.9792 24.4375 31.0417 26.4271 28.5 28.9688C25.9792 31.5104 23.9896 34.4479 22.5312 37.7812C21.0938 41.1146 20.375 44.6667 20.375 48.4375C20.375 52.2083 21.0938 55.7604 22.5312 59.0938C23.9896 62.4271 25.9896 65.3646 28.5312 67.9062C31.0729 70.4479 34.0104 72.4375 37.3438 73.875C40.6771 75.3333 44.2292 76.0625 48 76.0625Z" fill="#E8F4F8"/>
</svg>
