<svg width="96" height="96" viewBox="0 0 96 96" fill="none" xmlns="http://www.w3.org/2000/svg">
<path d="M12.5 67.1562V41.5312H83.4688V67.1562C83.4688 70.3854 82.6875 72.8021 81.125 74.4062C79.5625 76.0312 77.3854 76.8438 74.5938 76.8438H22.3125C19.0417 76.8438 16.5833 76.0312 14.9375 74.4062C13.3125 72.8021 12.5 70.3854 12.5 67.1562ZM12.5 37.4375V29.0625C12.5 25.9167 13.25 23.5625 14.75 22C16.25 20.4375 18.375 19.6562 21.125 19.6562H30.0312C31.0521 19.6562 31.9375 19.7292 32.6875 19.875C33.4583 20.0208 34.1562 20.2604 34.7812 20.5938C35.4271 20.9271 36.0938 21.3854 36.7812 21.9688L38.6875 23.5312C39.4792 24.1979 40.2396 24.6771 40.9688 24.9688C41.6979 25.2396 42.5938 25.375 43.6562 25.375H73.6562C76.9062 25.375 79.3542 26.1875 81 27.8125C82.6458 29.4375 83.4688 31.8542 83.4688 35.0625V37.4375H12.5Z" fill="#E8F4F8"/>
</svg>
