<svg width="18" height="18" viewBox="0 0 18 18" fill="none" xmlns="http://www.w3.org/2000/svg">
<path d="M15.75 13.5C16.1642 13.5 16.5 13.8358 16.5 14.25C16.5 14.6642 16.1642 15 15.75 15H5.25C4.83579 15 4.5 14.6642 4.5 14.25C4.5 13.8358 4.83579 13.5 5.25 13.5H15.75ZM15.75 8.25C16.1642 8.25 16.5 8.58579 16.5 9C16.5 9.41421 16.1642 9.75 15.75 9.75H5.25C4.83579 9.74999 4.5 9.41421 4.5 9C4.5 8.58579 4.83579 8.25001 5.25 8.25H15.75ZM15.75 3C16.1642 3 16.5 3.33579 16.5 3.75C16.5 4.16421 16.1642 4.5 15.75 4.5H5.25C4.83579 4.49999 4.5 4.16421 4.5 3.75C4.5 3.33579 4.83579 3.00001 5.25 3H15.75Z" fill="currentColor"/>
<circle cx="2.25" cy="3.75" r="0.75" fill="currentColor"/>
<circle cx="2.25" cy="9" r="0.75" fill="currentColor"/>
<circle cx="2.25" cy="14.25" r="0.75" fill="currentColor"/>
</svg>
