<svg width="18" height="18" viewBox="0 0 18 18" fill="none" xmlns="http://www.w3.org/2000/svg">
<path d="M4.65186 15.5869C4.52067 15.4896 4.44027 15.3584 4.41064 15.1934C4.38525 15.0283 4.41276 14.8315 4.49316 14.603L5.81982 10.6548L2.43018 8.21729C2.23128 8.07764 2.09375 7.93376 2.01758 7.78564C1.94141 7.63753 1.92871 7.48519 1.97949 7.32861C2.03027 7.17627 2.12972 7.06201 2.27783 6.98584C2.42594 6.90967 2.62272 6.8737 2.86816 6.87793L7.02588 6.90332L8.28906 2.93604C8.36523 2.70329 8.46045 2.52767 8.57471 2.40918C8.6932 2.29069 8.83285 2.23145 8.99365 2.23145C9.15869 2.23145 9.29834 2.29069 9.4126 2.40918C9.53109 2.52767 9.62842 2.70329 9.70459 2.93604L10.9678 6.90332L15.1255 6.87793C15.3709 6.8737 15.5677 6.90967 15.7158 6.98584C15.8639 7.06201 15.9634 7.17627 16.0142 7.32861C16.0649 7.48519 16.0522 7.63753 15.9761 7.78564C15.8999 7.93376 15.7624 8.07764 15.5635 8.21729L12.1738 10.6548L13.5005 14.603C13.5809 14.8315 13.6063 15.0283 13.5767 15.1934C13.5513 15.3584 13.473 15.4896 13.3418 15.5869C13.2106 15.6885 13.0625 15.7223 12.8975 15.6885C12.7324 15.6589 12.5526 15.5742 12.3579 15.4346L8.99365 12.9653L5.63574 15.4346C5.44108 15.5742 5.26123 15.6589 5.09619 15.6885C4.93115 15.7223 4.78304 15.6885 4.65186 15.5869Z" fill="#FF8C00"/>
</svg>
